PathFileType	4	(X/Y/Z)	C:\Users\Basilio\Documents\Thesis Gigler\squatting_fais\c3dfiles\040\SJ_pre4\markers_experimental.trc
DataRate	CameraRate	NumFrames	NumMarkers	Units	OrigDataRate	OrigDataStartFrame	OrigNumFrames
200.000000	200.000000	4	63	mm	200.000000	445	1189
Frame#	Time	FHD			LBHD			RBHD			C7			T10			CLAV			LSHO			LUUPA			LMUPA			LDUPA			LLEP			LMEP			LRAD			LUL			LRFIN			RSHO			RUPA1			RMUPA			RDUPA			RLEP			RMEP			RRAD			RUL			RUFIN			LASI			RASI			USACR			LSACR			RSACR			LTHI1			LTHI2			LTHI3			LTHI4			LLFC			LMFC			LTIB1			LTIB2			LTIB3			LTIB4			LLMAL			LMMAL			LHEE			LMT1			LMT2			LMT5			RTHI			RTHI2			RTHI3			RTHI4			RLFC			RMFC			RTIB1			RTIB2			RTIB3			RTIB4			RLMAL			RMMAL			RHEE			RMT1			RMT2			RMT5			*61			*62			
		X1	Y1	Z1	X2	Y2	Z2	X3	Y3	Z3	X4	Y4	Z4	X5	Y5	Z5	X6	Y6	Z6	X7	Y7	Z7	X8	Y8	Z8	X9	Y9	Z9	X10	Y10	Z10	X11	Y11	Z11	X12	Y12	Z12	X13	Y13	Z13	X14	Y14	Z14	X15	Y15	Z15	X16	Y16	Z16	X17	Y17	Z17	X18	Y18	Z18	X19	Y19	Z19	X20	Y20	Z20	X21	Y21	Z21	X22	Y22	Z22	X23	Y23	Z23	X24	Y24	Z24	X25	Y25	Z25	X26	Y26	Z26	X27	Y27	Z27	X28	Y28	Z28	X29	Y29	Z29	X30	Y30	Z30	X31	Y31	Z31	X32	Y32	Z32	X33	Y33	Z33	X34	Y34	Z34	X35	Y35	Z35	X36	Y36	Z36	X37	Y37	Z37	X38	Y38	Z38	X39	Y39	Z39	X40	Y40	Z40	X41	Y41	Z41	X42	Y42	Z42	X43	Y43	Z43	X44	Y44	Z44	X45	Y45	Z45	X46	Y46	Z46	X47	Y47	Z47	X48	Y48	Z48	X49	Y49	Z49	X50	Y50	Z50	X51	Y51	Z51	X52	Y52	Z52	X53	Y53	Z53	X54	Y54	Z54	X55	Y55	Z55	X56	Y56	Z56	X57	Y57	Z57	X58	Y58	Z58	X59	Y59	Z59	X60	Y60	Z60	X61	Y61	Z61	X62	Y62	Z62	X63	Y63	Z63	

446	2.225	8.962265968322756	1012.7451171875	-889.6694946289065	-120.8161392211914	973.3303833007815	-928.6903076171877	-175.7716064453125	940.9792480468752	-795.981872558594	-200.4581146240235	882.6062011718752	-850.668395996094	-458.481903076172	715.0835571289064	-857.3728637695315	-144.1140747070313	740.3302001953126	-846.8309326171877	-126.2225952148438	788.9801025390627	-1016.900695800781	-236.2454528808594	740.1015014648439	-1182.997192382813	-263.9333801269532	700.0815429687501	-1178.326538085938	-284.2225036621094	720.9622802734376	-1230.6923828125	-335.5887756347657	710.8515625000001	-1275.98779296875	-378.6222229003907	769.3610839843752	-1253.38916015625	-554.8355712890626	604.5000000000001	-1103.122192382813	-523.9869384765626	543.2149047851564	-1130.881469726563	-517.8291015625001	599.0626220703126	-1047.017456054688	-138.7898559570313	779.9849243164065	-677.1630859375001	-270.3533325195313	789.4026489257815	-521.9985961914064	-296.9883117675782	747.0789184570314	-516.9744873046876	-322.6128845214844	782.1174926757815	-475.5598144531251	-381.4900207519532	757.9346923828126	-439.0066833496095	-431.7412719726564	813.409851074219	-485.1092529296876	-545.0893554687501	615.1893310546876	-627.3552856445314	-534.1251831054689	556.2096557617189	-579.0336303710939	-492.9055175781251	591.6947021484376	-671.1124877929689	-446.7587890625001	514.4768066406251	-975.773864746094	-453.749237060547	503.2332458496095	-763.5726318359376	-597.5887451171876	612.1846923828126	-859.2120361328127	-621.5859375000001	591.4208984375001	-888.3726806640627	-628.3872680664064	591.6801757812501	-834.4976806640627	-417.6384887695314	427.4249267578126	-1098.799438476563	-341.4935913085938	461.0300292968751	-1119.893188476563	-333.4468383789063	505.9520874023439	-1107.3056640625	-291.4593200683594	430.885955810547	-1129.90234375	-175.1042785644532	436.3583984375001	-1148.350830078125	-146.3825225830078	389.309295654297	-1022.627990722656	-221.6427459716797	240.7110443115235	-1118.30712890625	-309.2298889160157	253.1028900146485	-1143.336547851563	-274.7567749023438	224.0536651611329	-1134.585815429688	-307.5520935058594	150.8537139892578	-1105.834594726563	-408.8527832031251	103.5118713378907	-1109.3603515625	-360.6479797363282	101.9908523559571	-1034.626098632813	-469.3817138671876	47.65307998657227	-1067.6826171875	-248.1154479980469	58.46334838867189	-1085.38037109375	-257.4579467773438	55.92451477050783	-1131.116455078125	-311.0361022949219	32.08094024658204	-1171.773193359375	-411.830291748047	453.1994628906251	-622.8527221679689	-350.4930725097657	475.7565307617189	-610.5562744140626	-339.8151245117188	506.7039184570314	-622.4477539062501	-282.6842651367188	428.2986145019532	-591.7773437500001	-191.7947845458985	411.5527954101564	-576.6110229492189	-156.4386596679688	390.6580200195314	-711.5462036132814	-229.8533477783204	248.5474243164063	-608.7059936523439	-339.9895019531251	234.3462524414063	-605.9896850585939	-303.3366394042969	204.5448913574219	-610.0744628906251	-313.6006774902344	156.9700622558594	-642.6261596679689	-424.4566040039064	100.2052612304688	-640.2407836914064	-383.5747680664063	98.41331481933597	-720.8902587890626	-483.498260498047	48.76780700683595	-701.1071777343751	-267.0870361328126	54.82703018188478	-646.7294311523439	-280.8973693847657	57.92298889160158	-609.2487792968751	-333.7578735351563	34.93709945678712	-567.3416137695314	nan	nan	nan	nan	nan	nan	
447	2.23	8.478744506835939	1013.292846679688	-889.6746215820315	-120.8436050415039	973.874206542969	-928.8371582031252	-176.1796417236328	941.8946533203127	-796.0404052734377	-200.5596313476563	883.149841308594	-850.6528320312502	-458.4945373535157	715.4520263671876	-857.5266113281252	-144.2984161376953	740.8827514648439	-846.7254028320315	-126.0462875366211	790.0640869140627	-1016.868591308594	-235.9979095458985	740.4493408203126	-1182.996948242188	-263.5910339355469	700.3032836914064	-1178.263916015625	-283.9067687988282	721.1554565429689	-1230.691528320313	-335.2532348632813	710.8151245117189	-1276.04248046875	-378.3810119628907	769.3220214843752	-1253.467163085938	-554.6356811523439	604.5108032226564	-1103.322143554688	-523.7566528320314	543.1008911132814	-1131.038330078125	-515.8336181640626	598.5899658203126	-1046.412719726563	-139.1429290771485	780.934265136719	-676.9333496093751	-270.8934631347657	790.3087158203127	-521.9669189453126	-297.3208312988282	747.9327392578126	-517.0656127929689	-323.1501159667969	782.6853637695315	-475.3135375976564	-381.9025268554688	758.6115112304689	-439.0760803222657	-432.1304321289064	814.0596313476565	-485.2813415527345	-544.9305419921876	615.3804321289064	-627.3831787109376	-533.6685180664064	556.5300292968751	-579.0406494140626	-492.8360900878907	591.9615478515626	-671.2605590820314	-446.3020629882814	515.2098999023439	-975.752380371094	-453.2729797363282	504.1410217285157	-763.5731811523439	-597.2761840820314	612.6875610351564	-859.2462158203127	-621.4338989257814	591.6210937500001	-888.577819824219	-628.2020874023439	591.9386596679689	-834.5389404296877	-417.2234497070314	427.4244689941407	-1098.698608398438	-341.0227355957032	460.9900512695314	-1119.656127929688	-332.8876037597657	505.7669067382814	-1107.1572265625	-290.9841918945313	430.8046875000001	-1129.600708007813	-174.6021881103516	436.0894775390626	-1147.9326171875	-146.1827850341797	389.0508117675782	-1022.26513671875	-221.5746154785157	241.1942749023438	-1117.9853515625	-308.8653869628907	253.0418548583985	-1143.073852539063	-274.6753540039063	224.0117645263672	-1134.37890625	-307.4277648925782	150.8180389404297	-1105.659057617188	-408.6662902832032	103.4541320800782	-1109.2451171875	-360.4449768066407	101.8320541381836	-1034.412231445313	-469.352752685547	47.67986297607423	-1067.670776367188	-248.0739135742188	58.45982742309572	-1085.345092773438	-257.5017089843751	55.89451599121095	-1131.077880859375	-311.0213623046876	32.09885406494141	-1171.69873046875	-411.6531677246095	453.487518310547	-622.9728393554689	-350.1535034179688	475.7598266601564	-610.7884521484376	-339.6216735839844	506.7430725097657	-622.6254882812501	-282.4893188476563	428.1804809570314	-592.0401611328126	-191.7677307128907	411.4880371093751	-576.8939819335939	-156.2499084472657	390.4682617187501	-711.9116210937501	-229.8578033447266	248.424789428711	-608.8604125976564	-339.7162475585938	234.4414062500001	-606.2451782226564	-303.2553100585938	204.1646118164063	-610.4071044921876	-313.3999633789063	157.0902252197266	-642.6668701171876	-424.3910217285157	100.2574157714844	-640.1943359375001	-383.5058898925782	98.3181076049805	-720.9968872070314	-483.5084838867189	48.80276489257814	-701.1220703125001	-267.0576477050782	54.76272201538087	-646.7477416992189	-280.8780517578126	57.89487075805665	-609.2925415039064	-333.6266174316407	34.8558578491211	-567.3493041992189	nan	nan	nan	nan	nan	nan	
448	2.235	8.423081398010256	1014.1884765625	-889.942810058594	-121.0878067016602	974.5749511718752	-928.9546508789065	-176.4581298828125	942.6138305664065	-796.1734619140627	-200.8170318603516	883.915710449219	-850.7535400390627	-458.9239196777345	716.0952758789064	-857.6345825195315	-144.2597808837891	741.7543945312501	-846.7011718750002	-126.1167526245117	790.691345214844	-1016.743225097656	-235.8553771972657	740.8320312500001	-1182.940795898438	-263.6516113281251	700.8338623046876	-1178.26025390625	-283.7511596679688	721.2996826171876	-1230.586547851563	-334.9211120605469	710.8883056640626	-1276.048706054688	-378.2038879394532	769.2529907226565	-1253.541625976563	-554.4694213867189	604.4613037109376	-1103.502807617188	-523.4395141601564	543.1043090820314	-1131.169189453125	-515.7870483398439	598.6773071289064	-1046.628540039063	-139.1961212158203	781.8558349609377	-676.9314575195314	-271.0146484375001	791.6059570312502	-521.7639770507814	-297.4908752441407	748.6720581054689	-517.0211181640626	-323.4118041992188	783.524597167969	-475.2845458984376	-382.2001647949219	759.5166015625001	-438.9128417968751	-432.4305725097657	814.6692504882815	-485.4311523437501	-544.5828857421876	615.5311889648439	-627.3589477539064	-533.3928833007814	556.7533569335939	-579.0384521484376	-492.8089599609376	592.3499145507814	-671.3621215820314	-446.4230346679689	515.0379028320314	-975.897644042969	-453.417694091797	504.0354919433595	-763.7479858398439	-597.0977783203126	612.9461059570314	-859.4346313476565	-621.3684082031251	591.8699340820314	-888.763854980469	-628.1375732421876	592.1979370117189	-834.7322387695315	-416.8828430175782	427.4301147460939	-1098.5869140625	-340.6040344238282	460.9670715332032	-1119.463134765625	-332.5457153320313	505.8375854492189	-1107.045654296875	-290.4137878417969	430.7375793457032	-1129.224365234375	-173.9793090820313	435.8011474609376	-1147.50146484375	-145.5861511230469	389.0346984863282	-1021.799255371094	-221.2226715087891	240.8465576171876	-1117.56005859375	-308.4821166992188	253.0857696533204	-1142.932861328125	-274.9160156250001	222.842025756836	-1133.989379882813	-307.3895874023438	150.8603515625	-1105.472900390625	-408.641082763672	103.5417709350586	-1109.103149414063	-360.3598022460938	101.7626724243164	-1034.363891601563	-469.3545837402345	47.73873519897462	-1067.593383789063	-248.2936553955079	58.49292755126955	-1085.292358398438	-257.4279479980469	55.9065284729004	-1130.9990234375	-311.0986938476563	32.17100143432618	-1171.658569335938	-411.4110717773439	453.5681762695314	-623.0117187500001	-349.8423461914063	475.7598571777345	-610.9715576171876	-339.4135437011719	507.0113220214845	-622.8557739257814	-282.4848327636719	428.3140258789064	-592.2814941406251	-191.6014251708985	411.4448547363282	-577.1974487304689	-156.1146392822266	390.3640747070314	-712.3593139648439	-229.5713195800782	248.0275115966797	-609.0770874023439	-339.6782531738282	234.5004882812501	-606.5507202148439	-303.2621459960938	204.5939025878907	-610.4602661132814	-313.3222961425782	157.1351318359375	-642.7728881835939	-424.4000244140626	100.2967910766602	-640.3150634765626	-383.4595336914063	98.24841308593753	-721.0288696289064	-483.4396972656251	48.76943969726564	-701.1377563476564	-267.1003417968751	55.37842559814455	-646.7169189453126	-280.7351989746094	57.7488250732422	-609.3315429687501	-333.6616821289063	34.83644104003907	-567.3969116210939	nan	nan	nan	nan	nan	nan	
449	2.24	8.081756591796877	1014.946044921875	-890.0565185546877	-121.86376953125	975.6599731445315	-929.114440917969	-176.3278350830078	943.6094970703127	-796.1761474609377	-200.9638671875001	884.4034423828127	-850.8339843750002	-458.8769836425782	716.4383544921876	-857.8386840820315	-144.3324432373047	742.6751098632814	-846.5140380859377	-126.0785217285157	791.2027587890627	-1016.710021972656	-235.7037506103516	741.0960083007814	-1182.896606445313	-263.0500488281251	700.7009277343751	-1178.19091796875	-283.4973449707032	721.4908447265626	-1230.586303710938	-334.5968627929688	710.9761352539064	-1276.00390625	-378.0052490234376	769.3300781250002	-1253.623413085938	-554.2802124023439	604.4165649414064	-1103.687744140625	-523.1779785156251	543.0522460937501	-1131.314819335938	-515.5667724609376	598.7589111328126	-1046.751220703125	-139.4073791503907	782.7130126953127	-677.0057983398439	-271.8976440429688	791.4631958007815	-522.2495117187501	-297.9067382812501	749.2128295898439	-516.8302001953126	-323.9072570800782	784.3452758789065	-475.3965454101564	-382.4053039550782	760.1026000976564	-438.7071838378907	-432.8266906738282	815.2271118164065	-485.4881591796876	-544.3481445312501	615.7069091796876	-627.4634399414064	-532.7667846679689	557.0034179687501	-579.1379394531251	-492.6891174316407	592.8741455078126	-671.5056762695314	-446.318817138672	515.1630859375001	-975.8662719726565	-453.428680419922	504.3753967285157	-763.7414550781251	-597.0073242187501	613.2380981445314	-859.645690917969	-621.2429199218751	592.1563720703126	-888.8712158203127	-628.0751953125001	592.4909057617189	-834.9183349609377	-416.4757385253907	427.4642333984376	-1098.4931640625	-340.1862792968751	460.9860229492189	-1119.223510742188	-332.0694274902344	505.8499450683595	-1106.868286132813	-289.9523315429688	430.696746826172	-1128.951782226563	-173.6109466552735	435.6427001953126	-1147.101684570313	-144.9597320556641	389.190399169922	-1021.244201660156	-221.1354980468751	240.8828125000001	-1117.243896484375	-308.2490539550782	253.0589141845704	-1142.71142578125	-274.7662353515626	222.795150756836	-1133.752563476563	-307.2925415039063	150.864730834961	-1105.358764648438	-408.572235107422	103.6613082885742	-1108.940185546875	-360.3093261718751	101.7083892822266	-1034.257568359375	-469.3218383789064	47.84704971313477	-1067.542846679688	-248.1882629394532	58.38137054443361	-1085.223388671875	-257.4194335937501	55.95068359375001	-1130.926879882813	-311.0337524414063	32.17244338989259	-1171.5810546875	-411.1946105957032	453.9022827148439	-623.0679321289064	-349.6367187500001	475.9378356933595	-611.2085571289064	-339.1824340820313	507.1390991210939	-623.0341186523439	-282.3717651367188	428.2740783691407	-592.5073852539064	-191.4936828613282	411.563201904297	-577.3939208984376	-155.9709930419922	390.2403259277345	-712.8067626953126	-229.4996948242188	247.9696655273438	-609.3597412109376	-339.5393371582032	234.5515136718751	-606.7444458007814	-303.1530761718751	204.5552520751954	-610.5984497070314	-313.2076416015626	157.067626953125	-643.0415649414064	-424.3656005859376	100.4333648681641	-640.3872070312501	-383.3025207519532	98.19986724853518	-721.1476440429689	-483.4691467285157	48.76572036743165	-701.1516723632814	-266.4015502929688	56.36398696899415	-646.2618408203126	-280.7694396972657	57.82200241088869	-609.3599853515626	-333.6512756347657	34.83645629882813	-567.4328613281251	nan	nan	nan	nan	nan	nan	
